<svg xmlns="http://www.w3.org/2000/svg" viewBox="0 0 155 200">
  <g fill="green">
    <path d="M5.4844 195.1875 L83.25 195.1875 Q114.4688 195.1875 132.6797 210.3047 Q150.8906 225.4219 150.8906 248.4844 Q150.8906 269.7188 135.9844 285.3281 Q121.0781 300.9375 91.5469 300.9375 Q79.1719 300.9375 59.625 296.5781 L59.625 349.3125 Q59.625 363.5156 60.8906 369.3516 Q62.1562 375.1875 67.7109 377.9297 Q73.2656 380.6719 86.625 380.6719 L86.625 385.875 L5.4844 385.875 L5.4844 380.6719 Q18.8438 380.6719 24.3984 377.9297 Q29.9531 375.1875 31.2188 369.3516 Q32.4844 363.5156 32.4844 349.3125 L32.4844 231.75 Q32.4844 217.5469 31.2188 211.7109 Q29.9531 205.875 24.3984 203.1328 Q18.8438 200.3906 5.4844 200.3906 L5.4844 195.1875 ZM91.2656 296.0156 Q116.8594 296.0156 130.9922 282.9375 Q145.125 269.8594 145.125 248.4844 Q145.125 229.9219 129.0938 215.1562 Q113.0625 200.3906 76.3594 200.3906 Q100.2656 202.6406 112.3594 215.5781 Q124.4531 228.5156 124.4531 249.8906 Q124.4531 267.4688 115.5938 280.125 Q106.7344 292.7812 91.2656 296.0156 ZM62.7188 380.6719 Q56.6719 376.5938 55.2656 369.7031 Q53.8594 362.8125 53.8594 349.3125 L53.8594 211.9219 Q53.8594 203.9062 59.625 200.9531 L29.3906 200.9531 Q35.4375 205.0312 36.8438 211.9219 Q38.25 218.8125 38.25 232.3125 L38.25 349.3125 Q38.25 362.8125 36.8438 369.7031 Q35.4375 376.5938 29.3906 380.6719 L62.7188 380.6719 ZM59.625 288.2812 Q73.4062 291.0938 86.9062 291.0938 Q100.2656 291.0938 109.4766 278.7188 Q118.6875 266.3438 118.6875 249.8906 Q118.6875 231.6094 107.9297 219.1641 Q97.1719 206.7188 79.1719 206.7188 Q69.1875 206.7188 59.625 209.3906 L59.625 288.2812 Z" transform="translate(0 -190)"/>
  </g>
</svg>
